<?xml version="1.0" standalone="no"?>
<!DOCTYPE svg PUBLIC "-//W3C//DTD SVG 20010904//EN"
 "http://www.w3.org/TR/2001/REC-SVG-20010904/DTD/svg10.dtd">
<svg version="1.0" xmlns="http://www.w3.org/2000/svg"
 width="484.000000pt" height="515.000000pt" viewBox="0 0 484.000000 515.000000"
 preserveAspectRatio="xMidYMid meet">
<metadata>
Created by potrace 1.16, written by Peter Selinger 2001-2019
</metadata>
<g transform="translate(0.000000,515.000000) scale(0.100000,-0.100000)"
fill="#000000" stroke="none">
<path d="M2285 3875 c-229 -30 -365 -84 -595 -239 -64 -42 -197 -182 -261
-272 -165 -233 -239 -466 -239 -751 0 -142 28 -313 71 -436 34 -97 117 -252
179 -336 109 -146 287 -295 445 -374 74 -37 209 -82 305 -103 126 -27 363 -25
490 4 148 34 301 98 406 169 23 15 60 41 83 56 73 48 215 198 279 294 137 207
206 413 219 657 19 368 -113 722 -364 968 -215 213 -447 325 -753 364 -130 16
-130 16 -265 -1z m285 -50 c143 -21 242 -50 344 -98 352 -167 583 -450 677
-830 25 -102 36 -328 21 -448 -26 -205 -123 -441 -247 -599 -85 -109 -263
-256 -395 -326 -245 -131 -562 -168 -836 -99 -360 92 -674 371 -808 718 -197
512 -63 1067 340 1411 133 114 307 205 461 242 181 44 296 52 443 29z"/>
<path d="M2330 3754 c-14 -2 -59 -9 -99 -15 -321 -47 -631 -281 -794 -596 -88
-172 -127 -334 -127 -534 0 -323 118 -602 350 -827 120 -117 262 -205 415
-257 93 -31 136 -40 269 -54 206 -23 474 40 651 152 222 141 396 349 478 572
160 436 63 904 -256 1227 -159 161 -379 280 -592 318 -67 12 -256 21 -295 14z
m346 -99 c228 -58 438 -202 576 -396 47 -65 108 -178 108 -198 0 -29 -23 -4
-54 57 -89 176 -234 324 -416 424 -275 151 -627 156 -912 12 -173 -87 -348
-271 -444 -467 -15 -31 -31 -57 -35 -57 -19 0 -15 20 17 83 104 206 272 376
471 476 75 37 214 79 303 91 106 14 275 3 386 -25z m-266 -89 c0 -19 -7 -26
-30 -31 -41 -9 -38 -25 5 -25 30 0 35 -3 35 -24 0 -18 -7 -25 -30 -29 -16 -4
-30 -11 -30 -17 0 -5 14 -10 30 -10 27 0 30 -3 30 -30 l0 -30 -60 0 c-33 0
-60 3 -60 8 0 4 -5 49 -10 100 -6 52 -8 98 -4 103 3 5 32 9 65 9 56 0 59 -1
59 -24z m220 4 c11 -6 24 -19 30 -30 9 -16 6 -22 -16 -37 -24 -16 -27 -16 -36
0 -13 24 -65 22 -78 -2 -14 -27 -13 -47 6 -65 18 -19 60 -21 67 -3 3 8 12 5
28 -11 l24 -23 -24 -20 c-14 -12 -38 -19 -63 -19 -32 0 -47 7 -75 35 -33 33
-35 38 -31 87 7 68 39 98 104 98 25 0 54 -5 64 -10z m-402 -111 l3 -107 -30
-10 c-34 -12 -41 -6 -115 102 -37 53 -45 71 -34 77 30 20 57 9 79 -31 13 -22
25 -40 28 -40 3 0 4 23 2 51 -3 55 7 71 44 67 18 -3 20 -12 23 -109z m577 57
c53 -24 55 -26 43 -51 -8 -18 -16 -24 -27 -19 -35 14 -51 16 -51 5 0 -6 11
-16 25 -21 26 -10 31 -25 16 -49 -8 -12 -14 -13 -36 -3 -33 15 -35 15 -35 -2
0 -8 11 -17 25 -20 27 -7 30 -17 15 -46 -10 -18 -11 -18 -58 2 -26 11 -50 23
-55 27 -9 8 63 201 74 201 5 0 33 -11 64 -24z m-810 -77 c22 -18 26 -28 23
-57 -4 -31 -1 -36 31 -50 20 -9 38 -18 41 -20 3 -2 -8 -14 -24 -27 l-30 -24
-28 20 -28 21 12 -27 c11 -24 10 -29 -7 -41 -10 -8 -22 -14 -26 -14 -10 0
-109 156 -109 173 0 13 84 66 106 67 6 0 24 -10 39 -21z m1000 -40 c21 -25 25
-39 21 -62 -7 -33 -31 -56 -58 -57 -13 0 -18 -9 -19 -30 -2 -48 -3 -53 -14
-57 -6 -2 -21 6 -34 18 -17 16 -21 28 -16 47 6 26 6 26 -13 8 -19 -16 -22 -17
-46 -1 l-25 17 60 89 60 89 28 -15 c16 -8 41 -29 56 -46z m-1181 -71 c15 -20
14 -24 -6 -45 -12 -13 -17 -23 -11 -23 5 0 18 9 28 20 18 20 18 20 37 -2 18
-21 18 -22 -2 -43 -23 -25 -25 -35 -6 -35 7 0 20 10 29 23 l15 22 23 -23 24
-22 -48 -47 -47 -47 -70 72 c-38 39 -70 75 -70 78 0 9 73 92 82 93 4 1 14 -9
22 -21z m1254 -135 l-77 -77 -25 23 -26 24 77 79 77 78 25 -25 26 -25 -77 -77z
m-721 25 c-1 -47 0 -48 83 -48 l80 0 0 31 c0 21 4 30 13 27 6 -3 38 -13 70
-23 31 -10 55 -20 53 -23 -3 -2 -18 0 -33 6 -15 6 -41 13 -58 16 -29 5 -29 5
5 -11 79 -37 95 -42 98 -33 5 13 29 13 37 0 3 -6 -1 -7 -9 -4 -16 6 -23 -10
-8 -19 4 -2 1 -2 -5 -1 -18 5 -16 -16 5 -39 9 -11 12 -17 5 -14 -6 4 -18 -2
-26 -13 -7 -11 -17 -17 -22 -12 -5 4 -5 1 -1 -6 4 -6 0 -19 -9 -28 -14 -15
-19 -15 -49 0 -18 8 -48 15 -67 14 -19 0 -48 6 -66 15 -33 18 -75 22 -87 10
-13 -13 -140 -10 -162 4 -11 7 -24 10 -27 6 -4 -3 -7 -1 -7 6 0 6 7 14 15 17
15 6 21 34 7 34 -4 0 -8 9 -9 20 -2 21 13 28 19 9 2 -7 15 -6 38 4 19 9 50 21
68 28 44 16 34 23 -14 10 -56 -15 -54 -5 3 12 62 19 61 19 60 5z m-647 -52 c0
-8 3 -21 6 -30 4 -11 0 -16 -14 -16 -22 0 -32 -18 -32 -55 0 -22 25 -45 49
-45 18 0 41 31 41 55 0 25 33 51 50 40 14 -8 13 -72 -1 -98 -35 -64 -111 -77
-169 -28 -31 26 -35 34 -35 79 0 42 5 56 29 81 31 32 76 42 76 17z m1544 -34
c14 -28 13 -30 -51 -115 -36 -48 -69 -87 -73 -87 -14 0 -44 54 -32 58 16 5
-14 62 -33 62 -17 0 -51 47 -41 57 9 9 164 51 193 52 15 1 27 -8 37 -27z
m-1110 -201 c-4 -17 -1 -45 6 -61 10 -23 10 -34 2 -42 -9 -9 -8 -15 1 -26 16
-20 8 -17 -113 48 -56 30 -96 56 -88 58 8 1 28 24 44 49 16 26 37 54 47 64 12
11 15 19 8 24 -6 3 -11 11 -11 16 0 6 25 -14 55 -45 49 -49 54 -58 49 -85z
m725 92 c23 -27 41 -52 41 -57 0 -4 -19 15 -42 42 -24 28 -46 48 -50 46 -4 -3
4 -17 18 -32 14 -15 34 -42 45 -59 11 -18 25 -33 30 -33 6 0 7 5 3 12 -4 7 -3
8 5 4 9 -6 9 -11 0 -22 -6 -8 -15 -14 -20 -14 -14 0 -149 -83 -149 -92 0 -4
-7 -8 -16 -8 -8 0 -13 -3 -11 -7 3 -5 -6 -9 -19 -9 -22 -2 -24 2 -24 40 l0 41
26 -30 25 -30 -15 32 c-9 17 -20 35 -26 38 -21 13 -8 39 53 102 34 35 64 68
65 74 7 18 21 9 61 -38z m-409 -3 c28 -25 36 -27 43 -15 17 31 64 17 117 -35
49 -49 59 -71 40 -100 -10 -16 -11 -16 -28 24 l-13 29 -30 -29 c-23 -22 -39
-29 -74 -29 -48 0 -48 -11 0 -18 17 -2 8 -3 -19 -2 -43 2 -53 7 -87 43 -34 38
-40 40 -69 32 -47 -14 -60 -28 -60 -70 0 -38 -21 -67 -40 -55 -5 3 -10 21 -10
40 0 19 -4 37 -10 40 -5 3 -10 -3 -10 -14 0 -12 -4 -21 -9 -21 -14 0 -41 47
-41 72 0 29 26 68 46 68 8 0 14 4 14 8 0 5 9 18 20 30 27 29 83 29 111 1 19
-19 20 -19 19 -2 -4 30 -1 33 28 33 15 -1 42 -14 62 -30z m-44 -165 c49 -37
95 -45 162 -26 25 8 32 7 32 -4 0 -8 -9 -17 -20 -20 -11 -3 -20 -15 -20 -25 0
-13 -5 -17 -15 -14 -11 5 -14 2 -9 -12 4 -11 10 -23 14 -29 5 -5 8 -76 8 -157
0 -120 -3 -146 -14 -141 -12 4 -14 -22 -14 -150 0 -105 4 -158 11 -163 24 -14
-22 -25 -113 -25 -95 0 -193 15 -204 32 -11 18 -22 9 -26 -22 -7 -45 17 -68
87 -85 107 -25 294 -14 339 19 15 11 17 50 17 405 0 247 3 392 9 392 6 0 10
-144 10 -389 0 -340 -2 -392 -16 -405 -44 -45 -233 -63 -368 -37 -114 23 -106
-9 -106 436 0 338 2 385 15 385 9 0 20 -12 25 -26 8 -21 15 -25 42 -22 30 3
33 7 41 48 8 44 28 70 54 70 7 0 33 -16 59 -35z m573 -105 c14 -1 13 -3 -1
-14 -14 -11 -18 -29 -18 -89 0 -51 4 -77 13 -81 15 -6 -69 5 -103 14 -21 5
-26 14 -31 56 -4 27 -10 56 -14 65 -5 13 2 18 32 23 98 17 95 15 89 49 l-5 32
11 -27 c7 -16 19 -28 27 -28z m-944 -40 c66 -11 120 -20 120 -20 0 -62 -2 -90
-6 -95 -5 -5 -92 -19 -239 -40 -19 -3 -29 -2 -22 1 8 4 12 32 12 89 0 57 -4
85 -12 89 -7 3 -4 4 7 1 11 -2 74 -14 140 -25z m761 -13 l27 -24 -2 -158 c-2
-141 -4 -162 -22 -187 -24 -33 -68 -58 -104 -58 -22 0 -25 4 -25 36 0 31 2 35
20 29 13 -4 31 0 46 10 24 16 25 16 22 163 l-3 147 -28 3 c-16 2 -35 -2 -43
-9 -12 -10 -14 -5 -14 30 l0 41 49 0 c38 0 56 -6 77 -23z m-655 -221 c-8 -10
-9 -16 -1 -21 5 -3 10 -32 10 -63 0 -55 -2 -59 -51 -109 -47 -49 -68 -66 -54
-44 7 13 -75 128 -95 133 -9 2 4 13 30 25 25 11 72 36 105 56 68 41 72 43 56
23z m-354 -211 c75 -40 112 -68 75 -58 -13 3 -22 1 -22 -6 0 -7 -4 -9 -10 -6
-5 3 -10 2 -10 -4 0 -5 -28 -7 -70 -4 -58 4 -71 2 -76 -11 -17 -44 -58 2 -69
77 l-7 47 60 0 c50 0 73 -6 129 -35z m1453 -1 c0 -44 -25 -104 -43 -104 -8 0
-20 7 -27 15 -16 19 -67 19 -103 0 -25 -13 -28 -12 -43 10 -10 15 -23 22 -36
20 -35 -7 -3 19 64 52 80 39 83 40 141 41 l47 1 0 -35z m-1685 -111 c62 -115
98 -157 259 -309 21 -20 140 -96 185 -118 209 -104 501 -126 721 -54 245 80
443 242 574 473 32 57 47 74 51 63 8 -20 -39 -109 -98 -188 -198 -266 -499
-420 -817 -420 -342 0 -660 175 -856 471 -62 94 -86 149 -66 149 6 0 27 -30
47 -67z m395 -10 c43 -40 51 -56 23 -47 -34 12 43 -46 107 -80 85 -45 147 -65
250 -82 174 -29 400 28 533 134 l38 31 80 -87 c43 -47 78 -91 76 -97 -8 -23
-148 -119 -233 -160 -142 -68 -233 -88 -394 -88 -166 0 -260 22 -405 94 -101
50 -225 139 -225 162 0 6 24 37 52 67 29 30 65 70 82 88 l30 32 -27 26 c-32
29 -50 25 -23 -5 20 -22 18 -29 -35 -86 -20 -22 -50 -56 -67 -75 -30 -34 -30
-35 -51 -16 -12 11 -21 24 -21 30 0 6 31 42 69 80 38 38 72 80 75 93 8 31 19
29 66 -14z m1020 16 c0 -13 30 -52 77 -100 l77 -79 -22 -22 c-21 -22 -21 -22
-43 -2 -12 10 -48 50 -82 87 l-60 68 23 24 c39 42 8 28 -37 -17 -23 -23 -45
-39 -48 -36 -8 8 86 98 102 98 7 0 13 -10 13 -21z"/>
<path d="M2199 1865 c-7 -30 -9 -58 -5 -63 4 -4 22 -7 39 -7 22 0 32 -5 32
-15 0 -10 -13 -16 -42 -18 -48 -3 -53 -12 -23 -42 54 -54 153 17 121 86 -6 14
-26 32 -44 40 l-32 15 48 -4 c46 -4 47 -4 47 23 0 24 -5 28 -37 34 -86 14 -90
11 -104 -49z"/>
<path d="M2415 1896 c-16 -11 -20 -29 -23 -89 -4 -66 -2 -77 17 -96 27 -27 82
-28 104 -3 26 29 24 155 -3 182 -23 23 -68 26 -95 6z"/>
</g>
</svg>
